<svg xmlns="http://www.w3.org/2000/svg" width="746.996" height="240.792" viewBox="0 0 746.996 240.792"><path d="M0 0h37.32v169.64H0V0zM69.02 0h34.412l79.488 104.45V0h36.836v169.64H188.01L105.854 61.796V169.64H69.02V0z" fill="#fff"/><path d="M242.995 141.285l93.3-108.57h-90.393V0H384.28v28.354l-93.302 108.568h312.085v32.716H242.995v-28.353z" fill="#CE2922"/><path d="M410.088 0h37.32v125.33h-37.32V0zM514.125 34.413h-51.618V0h140.557v34.413h-51.62v90.917h-37.318V34.413zM617.82 0h127.956v33.202H654.9v34.41h79.972v33.2h-79.97v35.626h92.086v33.2H617.82V0zM59.864 238.916c0 .23-.06.426-.177.595-.116.17-.322.306-.612.404-.292.098-.665.188-1.116.26-.456.063-1.045.1-1.774.1-.67 0-1.25-.036-1.73-.1-.485-.07-.862-.162-1.144-.26-.277-.1-.473-.234-.593-.403-.118-.172-.173-.365-.173-.594v-47.95h-.086l-19.4 48.166c-.085.196-.206.367-.363.505-.155.147-.385.265-.682.364-.3.103-.653.173-1.063.216-.413.04-.902.062-1.47.062-.595 0-1.106-.026-1.53-.086-.425-.055-.782-.13-1.063-.233-.284-.097-.504-.217-.66-.36-.154-.14-.26-.3-.318-.467L7.362 190.97h-.045v47.95c0 .226-.06.425-.176.596-.116.165-.32.3-.612.405-.292.097-.672.187-1.142.254-.466.068-1.065.104-1.794.104-.7 0-1.288-.036-1.754-.104-.467-.067-.84-.157-1.117-.253-.276-.103-.465-.24-.57-.404-.1-.173-.15-.37-.15-.6v-50.633c0-1.188.318-2.036.948-2.55.632-.515 1.338-.768 2.118-.768H7.56c.92 0 1.725.086 2.42.256.692.173 1.293.44 1.812.814.518.363.95.835 1.297 1.397.346.568.65 1.24.907 2.004L29.742 229.3h.21l16.38-39.74c.318-.85.662-1.572 1.038-2.17.376-.592.786-1.072 1.234-1.42.446-.355.942-.61 1.49-.768.548-.154 1.184-.233 1.903-.233h4.713c.433 0 .846.066 1.233.192.388.13.72.326.99.59.274.275.498.614.67 1.024.172.412.26.914.26 1.513v50.626zM103.285 237c0 .51-.03.962-.086 1.343-.056.383-.155.703-.297.956-.142.257-.306.442-.49.556-.185.11-.39.17-.615.17H75.376c-.653 0-1.268-.217-1.852-.66-.58-.44-.87-1.21-.87-2.315v-49.103c0-1.106.29-1.88.87-2.32.584-.44 1.198-.657 1.852-.657H101.5c.226 0 .43.06.614.172.187.11.334.3.448.555.113.256.205.572.277.955.068.385.107.862.107 1.426 0 .512-.04.958-.108 1.34-.073.385-.166.696-.278.937-.114.24-.262.418-.448.535-.183.112-.39.167-.614.167H79.972v17.277h18.465c.226 0 .433.064.614.194.188.122.343.305.468.53.126.228.222.54.28.936.056.4.083.865.083 1.404 0 .51-.03.955-.083 1.318-.057.366-.15.666-.28.894-.128.23-.282.39-.466.49-.18.095-.39.147-.613.147H79.972v19.698H101.8c.224 0 .432.062.614.173.184.11.348.29.49.53s.244.555.296.937c.053.374.085.85.085 1.415zM154.708 211.687c0 4.768-.61 8.927-1.83 12.488-1.22 3.56-2.998 6.505-5.34 8.85-2.335 2.337-5.21 4.09-8.61 5.254-3.407 1.16-7.462 1.742-12.17 1.742H115.1c-.653 0-1.27-.213-1.85-.658-.583-.44-.873-1.21-.873-2.313v-49.103c0-1.106.29-1.88.873-2.32.58-.44 1.2-.657 1.85-.657h12.464c4.767 0 8.794.618 12.084 1.854 3.29 1.232 6.047 3.003 8.277 5.316 2.227 2.31 3.915 5.113 5.062 8.403 1.15 3.288 1.723 7 1.723 11.144zm-7.702.297c0-2.978-.37-5.75-1.108-8.318-.735-2.567-1.893-4.787-3.465-6.657-1.574-1.877-3.568-3.337-5.977-4.385-2.414-1.053-5.52-1.577-9.318-1.577h-7.445v42.848h7.533c3.518 0 6.48-.44 8.892-1.318 2.41-.878 4.423-2.23 6.04-4.042 1.62-1.814 2.83-4.09 3.638-6.83.81-2.735 1.21-5.973 1.21-9.722zM171.905 238.916c0 .23-.06.426-.17.595-.113.17-.312.306-.597.404-.283.098-.66.188-1.126.26-.466.063-1.057.1-1.767.1-.68 0-1.26-.036-1.744-.1-.482-.07-.863-.162-1.147-.26-.284-.1-.482-.234-.597-.403-.117-.172-.17-.365-.17-.594V186.07c0-.225.064-.425.193-.59.128-.17.34-.307.638-.407.297-.1.682-.187 1.15-.254s1.026-.105 1.676-.105c.71 0 1.3.037 1.767.104.468.066.847.154 1.127.253.285.1.483.236.596.406.114.17.17.365.17.59v52.846zM226.53 237.432c.228.62.348 1.12.363 1.51.013.38-.092.674-.318.867-.228.197-.602.33-1.13.382-.522.06-1.227.086-2.103.086-.88 0-1.583-.02-2.107-.062-.526-.043-.92-.113-1.19-.215-.272-.1-.465-.233-.595-.403s-.25-.382-.364-.638l-4.725-13.403h-22.89l-4.51 13.233c-.085.25-.2.47-.34.658-.14.183-.347.343-.614.466-.27.13-.656.22-1.15.277-.497.06-1.14.084-1.935.084-.823 0-1.494-.037-2.02-.102-.528-.07-.897-.21-1.108-.41-.21-.2-.313-.488-.296-.87.015-.383.135-.886.36-1.51l18.466-51.14c.114-.313.262-.567.45-.767.182-.194.453-.354.806-.47.353-.11.807-.19 1.363-.23.555-.042 1.256-.067 2.105-.067.908 0 1.66.025 2.255.067.596.043 1.076.12 1.444.23.37.115.653.28.852.49.195.214.353.475.466.79l18.468 51.147zm-23.694-45.145h-.044l-9.488 27.44h19.143l-9.61-27.44zM252.698 225.518c0-1.562.21-3.05.636-4.448.427-1.405 1.092-2.767 2-4.084.908-1.32 2.09-2.598 3.553-3.83 1.46-1.234 3.223-2.473 5.294-3.724-1.134-1.53-2.103-2.924-2.913-4.172-.81-1.243-1.478-2.407-2-3.485-.527-1.078-.902-2.107-1.13-3.088-.226-.978-.34-1.96-.34-2.96 0-1.755.297-3.437.893-5.04.596-1.603 1.554-3.02 2.873-4.26 1.318-1.23 3.012-2.204 5.085-2.93 2.068-.723 4.58-1.086 7.528-1.086 2.5 0 4.663.27 6.492.808 1.83.54 3.347 1.304 4.55 2.3 1.207.99 2.116 2.188 2.724 3.597.608 1.398.915 2.97.915 4.7 0 1.676-.268 3.203-.808 4.59-.54 1.393-1.404 2.74-2.596 4.045-1.19 1.302-2.715 2.602-4.574 3.893-1.857 1.29-4.103 2.646-6.743 4.063.964 1.164 2.012 2.375 3.148 3.635 1.135 1.26 2.318 2.535 3.55 3.81 1.233 1.273 2.5 2.53 3.785 3.766 1.29 1.235 2.56 2.418 3.81 3.552.57-.765 1.08-1.64 1.532-2.615.453-.98.852-2.015 1.19-3.108.34-1.09.595-2.2.764-3.342.17-1.13.256-2.28.256-3.443v-1.534c0-.28.05-.515.148-.7.098-.184.26-.34.49-.468.226-.13.56-.216 1-.277.437-.054 1.015-.08 1.72-.08.626 0 1.16.013 1.598.042.438.03.8.095 1.084.193.28.1.49.252.615.468.13.21.192.503.192.87v1.064c0 1.59-.133 3.148-.404 4.676-.268 1.535-.638 3.03-1.107 4.492-.468 1.46-1.05 2.854-1.745 4.188-.694 1.337-1.467 2.565-2.318 3.702 1.277 1.022 2.39 1.873 3.34 2.554.95.68 1.76 1.234 2.425 1.66.666.425 1.22.72 1.66.893.438.166.8.253 1.084.253.284 0 .556-.013.807-.043.256-.028.46.015.62.13.156.113.276.338.36.677.087.34.13.862.13 1.574s-.015 1.278-.043 1.7c-.03.428-.077.748-.15.965-.068.208-.192.386-.36.527-.172.143-.485.27-.934.383-.455.11-1.05.172-1.787.172-.567 0-1.193-.1-1.874-.295-.68-.2-1.477-.552-2.38-1.048-.91-.493-1.966-1.172-3.172-2.022-1.204-.856-2.616-1.928-4.232-3.233-1.19.966-2.444 1.86-3.763 2.683-1.32.825-2.727 1.524-4.21 2.106-1.49.583-3.052 1.035-4.683 1.36-1.63.334-3.396.497-5.295.497-1.786 0-3.482-.156-5.082-.468-1.603-.313-3.084-.758-4.447-1.34-1.36-.582-2.58-1.31-3.66-2.19-1.078-.877-1.993-1.88-2.744-3-.75-1.117-1.335-2.372-1.745-3.764-.412-1.393-.617-2.897-.617-4.51zm7.613-.72c0 1.47.25 2.82.746 4.036.498 1.224 1.227 2.276 2.192 3.17.966.89 2.17 1.586 3.615 2.086 1.444.496 3.118.742 5.022.742 1.163 0 2.294-.117 3.402-.36 1.107-.244 2.164-.57 3.17-.982 1.007-.413 1.965-.907 2.874-1.488.91-.583 1.746-1.2 2.51-1.852-1.474-1.275-2.94-2.602-4.402-3.977-1.46-1.376-2.873-2.76-4.233-4.152-1.363-1.382-2.675-2.768-3.937-4.142-1.26-1.377-2.42-2.717-3.47-4.02-1.416.905-2.602 1.808-3.548 2.7-.952.895-1.716 1.784-2.3 2.68-.583.895-1 1.794-1.255 2.7-.255.912-.384 1.86-.384 2.86zm4.937-29.618c0 .764.108 1.546.32 2.337.21.796.54 1.628.98 2.49.44.86.978 1.79 1.616 2.787.64.994 1.396 2.1 2.278 3.32 2.07-1.162 3.806-2.233 5.21-3.213 1.404-.982 2.53-1.922 3.38-2.826.856-.906 1.472-1.817 1.853-2.725.385-.905.578-1.873.578-2.895 0-.823-.147-1.608-.447-2.36-.296-.748-.772-1.414-1.425-1.996-.653-.586-1.474-1.048-2.467-1.383-.992-.344-2.18-.512-3.572-.512-1.505 0-2.772.193-3.807.575-1.038.382-1.886.89-2.555 1.528-.665.64-1.158 1.38-1.466 2.233-.314.856-.473 1.73-.473 2.64zM394.42 238.916c0 .23-.062.426-.174.595-.123.17-.326.306-.616.404-.295.098-.664.188-1.12.26-.45.063-1.042.1-1.768.1-.673 0-1.25-.036-1.73-.1-.48-.07-.864-.162-1.14-.26-.278-.1-.477-.234-.6-.403-.11-.172-.172-.365-.172-.594v-47.95h-.08l-19.402 48.166c-.085.196-.205.367-.362.505-.155.147-.385.265-.683.364-.295.103-.652.173-1.062.216-.41.04-.9.062-1.47.062-.595 0-1.105-.026-1.53-.086-.424-.055-.78-.13-1.065-.233-.283-.097-.503-.217-.658-.36-.157-.14-.262-.3-.318-.467l-18.552-48.163h-.04v47.95c0 .226-.06.425-.177.596-.115.165-.32.3-.61.405-.293.097-.673.187-1.143.254-.466.068-1.065.104-1.794.104-.7 0-1.288-.036-1.754-.104-.468-.067-.84-.157-1.118-.253-.277-.103-.466-.24-.57-.404-.102-.173-.152-.37-.152-.595v-50.637c0-1.188.318-2.036.95-2.55.632-.512 1.34-.768 2.116-.768h4.492c.92 0 1.73.086 2.42.256.69.173 1.295.44 1.812.814.518.363.952.835 1.296 1.397.345.568.65 1.24.91 2.004l15.74 39.865h.213l16.38-39.74c.315-.85.66-1.573 1.036-2.17.376-.593.782-1.073 1.232-1.422.45-.354.942-.61 1.49-.767.55-.153 1.184-.232 1.904-.232h4.712c.433 0 .845.067 1.232.193.39.13.72.327.992.592.27.274.498.613.672 1.023.173.412.26.914.26 1.513v50.628zM449.045 237.432c.23.62.346 1.12.357 1.51.013.38-.086.674-.32.867-.228.197-.597.33-1.12.382-.53.06-1.233.086-2.113.086-.883 0-1.58-.02-2.108-.062-.518-.043-.918-.113-1.19-.215-.27-.1-.46-.233-.59-.403-.13-.17-.253-.382-.364-.638l-4.725-13.403h-22.88l-4.517 13.233c-.08.25-.197.47-.34.658-.14.183-.344.343-.615.466-.264.13-.65.22-1.145.277-.5.06-1.14.084-1.935.084-.825 0-1.504-.037-2.026-.102-.524-.07-.894-.21-1.103-.41-.215-.194-.313-.488-.3-.87.017-.383.134-.886.362-1.51l18.464-51.14c.115-.313.258-.567.443-.767.19-.194.454-.354.806-.47.357-.11.807-.19 1.36-.23.556-.042 1.258-.067 2.107-.067.906 0 1.657.025 2.255.067.592.043 1.072.12 1.448.23.363.115.646.28.844.49.196.214.357.475.468.79l18.477 51.147zm-23.7-45.145h-.036l-9.488 27.44h19.142l-9.618-27.44zM493.77 238.916c0 .23-.043.426-.122.595-.086.17-.27.313-.555.43-.29.11-.685.193-1.196.252-.51.06-1.188.083-2.038.083-.74 0-1.344-.027-1.812-.083-.462-.06-.845-.148-1.122-.277-.283-.123-.506-.305-.665-.53-.153-.228-.29-.51-.4-.853l-5.063-12.978c-.59-1.476-1.214-2.827-1.848-4.062-.642-1.232-1.4-2.302-2.28-3.19-.88-.895-1.916-1.587-3.104-2.087-1.19-.496-2.626-.738-4.302-.738h-4.89v23.44c0 .23-.063.426-.19.6-.13.164-.33.3-.6.398-.27.098-.64.188-1.103.26-.467.063-1.06.1-1.767.1s-1.3-.036-1.768-.1c-.47-.07-.846-.162-1.128-.26-.284-.1-.48-.234-.592-.4-.117-.176-.173-.37-.173-.598v-50.97c0-1.106.29-1.88.87-2.32.578-.437 1.2-.657 1.848-.657h11.705c1.385 0 2.544.037 3.468.104.918.073 1.75.15 2.482.236 2.133.366 4.012.952 5.637 1.743 1.634.795 3 1.802 4.11 3.022 1.108 1.22 1.935 2.615 2.488 4.188.555 1.575.83 3.315.83 5.213 0 1.84-.25 3.493-.744 4.952-.498 1.46-1.213 2.754-2.15 3.875-.936 1.122-2.057 2.093-3.363 2.914-1.307.823-2.766 1.516-4.38 2.086.905.397 1.73.902 2.47 1.513.733.604 1.424 1.337 2.06 2.186.64.85 1.243 1.83 1.81 2.94.56 1.105 1.135 2.353 1.7 3.742l4.936 12.124c.393 1.022.65 1.74.762 2.153.124.407.18.728.18.956zm-11.014-38.67c0-2.16-.486-3.982-1.447-5.467-.97-1.496-2.583-2.562-4.85-3.215-.71-.2-1.51-.338-2.403-.43-.898-.08-2.062-.125-3.51-.125h-6.174v18.55h7.15c1.925 0 3.594-.233 4.998-.705 1.405-.465 2.576-1.117 3.512-1.956.938-.836 1.627-1.818 2.064-2.957.44-1.133.66-2.366.66-3.697zM538.16 238.83c0 .23-.05.438-.15.618-.098.183-.29.33-.572.444-.283.114-.665.21-1.146.28-.487.068-1.11.104-1.873.104-.993 0-1.806-.04-2.43-.126-.62-.083-1.096-.237-1.403-.472-.314-.222-.567-.478-.764-.76l-20.25-27.53v27.53c0 .196-.055.39-.172.572-.117.188-.314.33-.598.428-.283.1-.66.188-1.12.26-.47.064-1.06.1-1.77.1-.684 0-1.263-.035-1.75-.1-.48-.07-.862-.16-1.145-.26-.284-.098-.486-.24-.598-.428-.11-.182-.174-.373-.174-.572v-52.85c0-.225.062-.425.173-.59.11-.167.312-.307.597-.407.282-.098.658-.186 1.146-.253.486-.067 1.065-.104 1.75-.104.708 0 1.294.037 1.768.104.47.067.846.155 1.122.254.283.102.48.237.6.407.116.172.17.366.17.592v24.465l19.48-24.466c.18-.254.37-.467.604-.637.223-.173.5-.31.826-.403.333-.1.728-.182 1.195-.234.468-.058 1.065-.083 1.806-.083.738 0 1.33.037 1.786.104.454.067.818.167 1.083.278.27.113.456.253.555.425.098.173.147.354.147.555 0 .37-.092.74-.277 1.108-.178.367-.53.878-1.04 1.532l-18.255 21.822 19.658 26.122c.48.734.772 1.243.87 1.51.1.27.15.49.15.66zM576.668 237c0 .51-.036.962-.086 1.343-.062.383-.154.703-.296.956-.142.257-.308.442-.492.556-.186.11-.39.17-.616.17h-26.423c-.653 0-1.27-.217-1.848-.66-.58-.44-.876-1.21-.876-2.315v-49.103c0-1.106.297-1.88.877-2.32.578-.437 1.194-.657 1.848-.657h26.127c.228 0 .425.06.616.172.184.11.332.3.45.555.11.256.203.572.276.955.067.385.104.862.104 1.426 0 .512-.037.958-.104 1.34-.073.385-.167.696-.277.937-.117.24-.266.418-.45.535-.19.112-.388.167-.615.167h-21.53v17.277h18.462c.23 0 .432.064.616.194.185.122.34.305.47.53.128.228.22.54.275.936.056.4.087.865.087 1.404 0 .51-.03.955-.087 1.318-.055.366-.147.666-.276.894-.13.23-.285.39-.47.49-.185.095-.395.147-.616.147H553.35v19.698h21.828c.228 0 .43.062.616.173.185.11.35.29.492.53s.233.555.296.937c.05.374.086.85.086 1.415zM623.588 188.116c0 .542-.03 1.007-.087 1.404s-.146.722-.27.958c-.13.24-.284.422-.47.532-.184.114-.394.167-.615.167h-15.487v47.742c0 .224-.062.423-.173.594-.11.165-.314.3-.592.405-.282.095-.658.185-1.133.252-.462.068-1.054.104-1.762.104-.68 0-1.264-.036-1.744-.104-.486-.067-.87-.157-1.15-.253-.285-.105-.48-.24-.6-.406-.11-.173-.166-.37-.166-.595v-47.743H583.85c-.228 0-.43-.055-.615-.17-.19-.113-.333-.292-.45-.532-.11-.24-.202-.56-.277-.958-.073-.397-.104-.866-.104-1.404 0-.54.03-1.014.104-1.42.075-.416.167-.746.277-1.002.11-.255.26-.44.45-.557.185-.11.388-.17.616-.17h38.295c.222 0 .432.06.616.17.186.117.34.302.47.558.123.257.222.59.27 1.002.057.408.088.884.088 1.424zM638.114 238.916c0 .23-.056.426-.173.595s-.312.306-.597.404c-.283.098-.66.188-1.12.26-.47.063-1.06.1-1.77.1-.683 0-1.262-.036-1.742-.1-.486-.07-.868-.162-1.152-.26-.282-.1-.48-.234-.59-.403-.118-.172-.173-.365-.173-.594V186.07c0-.225.067-.425.19-.59.13-.17.34-.307.64-.407.297-.1.68-.187 1.147-.254s1.028-.105 1.682-.105c.71 0 1.294.037 1.77.104.467.066.843.154 1.12.253.284.1.48.236.598.406.117.17.173.365.173.59v52.846zM692.52 237c0 .573-.094 1.05-.285 1.448-.196.397-.443.72-.752.98-.308.252-.646.44-1.028.555-.382.113-.758.172-1.146.172h-2.422c-.764 0-1.43-.08-2.003-.234-.572-.155-1.114-.44-1.626-.853-.513-.408-1.03-.97-1.54-1.68-.52-.704-1.06-1.615-1.64-2.722L663.29 203.35c-.88-1.612-1.768-3.31-2.66-5.08-.888-1.775-1.72-3.494-2.49-5.173h-.086c.056 2.043.104 4.132.13 6.257.03 2.125.043 4.24.043 6.335v33.23c0 .2-.057.39-.18.572-.124.188-.327.33-.604.428-.29.1-.658.188-1.12.26-.47.064-1.055.1-1.775.1s-1.31-.035-1.772-.1c-.462-.07-.832-.16-1.104-.26-.264-.098-.456-.24-.58-.428-.122-.182-.184-.373-.184-.572v-50.804c0-1.134.327-1.94.968-2.425.646-.48 1.35-.722 2.106-.722h3.598c.856 0 1.565.07 2.132.21.58.147 1.084.377 1.54.704.456.33.894.78 1.312 1.358.426.59.87 1.318 1.338 2.196l12.913 24.165c.794 1.48 1.56 2.915 2.303 4.32.74 1.397 1.448 2.787 2.14 4.145.69 1.362 1.36 2.7 2.038 4.02.672 1.32 1.33 2.647 1.99 3.98h.043c-.055-2.238-.092-4.573-.104-7-.012-2.428-.023-4.756-.023-7v-29.87c0-.196.066-.384.184-.55.124-.172.32-.323.604-.45.29-.13.66-.215 1.122-.277.462-.055 1.072-.085 1.817-.085.658 0 1.225.03 1.705.085.474.062.856.148 1.12.277.272.127.463.278.586.45.118.166.18.352.18.55V237zM746.996 192.456c0 .54-.03 1.014-.086 1.426-.062.413-.142.752-.26 1.02-.11.27-.252.46-.425.576-.172.114-.35.174-.548.174-.345 0-.91-.27-1.707-.81-.794-.54-1.86-1.135-3.19-1.79-1.337-.65-2.933-1.248-4.787-1.785-1.86-.535-4.065-.81-6.616-.81-3.038 0-5.754.558-8.17 1.663s-4.453 2.637-6.123 4.59c-1.676 1.96-2.963 4.284-3.856 6.98-.887 2.695-1.336 5.618-1.336 8.766 0 3.512.486 6.635 1.465 9.358.98 2.73 2.33 5.02 4.06 6.894 1.732 1.873 3.796 3.29 6.192 4.257 2.4.968 5.032 1.448 7.89 1.448 1.7 0 3.426-.207 5.176-.62 1.743-.408 3.364-1.024 4.873-1.85V215.9h-12.766c-.48 0-.85-.237-1.084-.72-.246-.48-.363-1.236-.363-2.256 0-.54.024-.998.08-1.38.06-.39.154-.7.283-.937.123-.24.276-.422.443-.536.173-.11.382-.168.64-.168h17.485c.313 0 .622.058.936.17.314.113.598.288.85.51.254.23.457.543.6.937.135.4.215.853.215 1.36v20.975c0 .74-.13 1.38-.39 1.916-.253.536-.795 1.014-1.62 1.427-.82.413-1.885.854-3.19 1.34-1.307.483-2.65.89-4.042 1.233-1.386.34-2.79.597-4.208.766-1.423.173-2.827.256-4.214.256-4.25 0-8.058-.66-11.402-1.978-3.346-1.318-6.18-3.2-8.484-5.637-2.315-2.443-4.078-5.363-5.297-8.763-1.22-3.408-1.83-7.21-1.83-11.403 0-4.368.658-8.323 1.977-11.87 1.318-3.544 3.18-6.568 5.576-9.064 2.396-2.494 5.273-4.43 8.638-5.81 3.357-1.373 7.084-2.063 11.17-2.063 2.093 0 4.065.192 5.906.556 1.85.367 3.48.803 4.916 1.3 1.436.492 2.637 1.034 3.617 1.615.98.583 1.65 1.057 2.02 1.427.37.37.63.795.765 1.275.145.475.218 1.177.218 2.08z" fill="#fff"/></svg>