<svg xmlns="http://www.w3.org/2000/svg" width="251.5" height="95" viewBox="0 0 251.5 95"><g fill="#F47D31"><path d="M11.874 60.01l.17-49.205-6.512-.023.018-5.11 19.122.066-.018 5.11-6.51-.022-.17 49.206-6.1-.02zM34.323 60.582c-3.215-.012-5.843-2.657-5.832-5.87l.15-43.603c.012-3.216 2.66-5.844 5.873-5.833l8.9.03c3.216.012 5.844 2.66 5.833 5.873l-.15 43.6c-.01 3.216-2.658 5.845-5.873 5.833l-8.9-.03zm8.91-50.247l-8.49-.03-.155 45.25 8.49.028.155-45.248zM68.965 60.208l-3.963-21.856-4.78-.017-.077 21.842-6.017-.02.19-54.317 14.01.05c3.214.01 5.843 2.656 5.832 5.87l-.07 20.69c-.01 2.307-1.335 4.28-3.234 5.263L75.23 60.23l-6.265-.022zm-.82-49.21l-7.83-.027-.077 22.584 7.83.027L68.146 11zM84.985 60.758c-3.214-.01-5.843-2.658-5.832-5.872l.15-43.602c.01-3.215 2.658-5.843 5.873-5.832l8.9.03c3.216.012 5.844 2.66 5.833 5.873l-.15 43.602c-.013 3.215-2.66 5.843-5.874 5.832l-8.9-.032zm8.91-50.247l-8.49-.03-.155 45.25 8.49.027.156-45.246zM124.218 60.398l.17-49.208-6.51-.022.017-5.11 19.12.066-.016 5.11-6.514-.022-.17 49.206-6.098-.02zM156.214 60.51l.087-25.14-9.23-.03-.087 25.14-6.017-.022.188-54.317 6.017.022-.082 24.15 9.23.032.084-24.15 6.02.022-.19 54.315-6.018-.02zM167.432 60.55l.188-54.318 17.062.06-.02 5.027-11.043-.04-.07 19.535 9.232.032-.02 5.11-9.23-.032-.066 19.617 11.044.038-.017 5.027-17.06-.058zM217.822 60.723l.17-49.207-8.488-.03-.17 49.208-6.02-.02.172-49.207-8.49-.03-.17 49.208-6.016-.02.188-54.317 6.018.02-.012 3.05c.75-2.14 2.73-3.04 5.615-3.03l1.895.006c2.967.01 4.444 1.5 5.183 3.068.83-2.14 2.317-3.042 5.202-3.032l5.273.02c3.217.01 5.844 2.657 5.833 5.87l-.168 48.466-6.016-.023zM229.006 60.76l.188-54.315 17.062.06-.017 5.027-11.05-.038-.064 19.534 9.23.032-.018 5.11-9.23-.03-.068 19.615 11.045.038-.02 5.027-17.06-.06z"/></g><path fill="#F47D31" d="M5.5 69h241v1H5.5z"/><g fill="#F47D31"><path d="M8.247 88.073v-4.207H6.66v4.207H5.5v-9.335c0-.62.508-1.127 1.126-1.127h1.667c.62 0 1.127.51 1.127 1.128v9.335H8.247zm0-9.493H6.66v4.316h1.587V78.58zM14.395 88.073c-.635 0-1.143-.51-1.143-1.128v-5.588c0-.62.508-1.127 1.143-1.127h1.62c.635 0 1.127.508 1.127 1.127v1.412h-1.127v-1.54h-1.62v5.858h1.62V85.61h1.127v1.334c0 .62-.492 1.127-1.127 1.127l-1.62.003zM21.256 88.073l-.08-.62c-.19.43-.507.62-1.063.62h-.7c-.618 0-1.126-.51-1.126-1.128V80.23h1.144v6.858h1.684V80.23h1.143v7.843h-1zM24.577 88.073c-.635 0-1.144-.51-1.144-1.128V85.93h1.144v1.16h1.38v-1.48l-2.222-2.285c-.174-.19-.27-.333-.27-.73v-1.223c0-.636.508-1.144 1.144-1.144h1.348c.62 0 1.127.508 1.127 1.144v1h-1.127V81.23h-1.35v1.477l2.24 2.286c.174.19.237.397.237.618v1.335c0 .62-.508 1.128-1.127 1.128h-1.38zM28.755 88.073v-6.86h-1v-.983h1v-1.746H29.9v1.746h1.22v.982H29.9v6.86h-1.145zM32.933 88.073c-.635 0-1.144-.51-1.144-1.128v-5.572c0-.635.507-1.143 1.143-1.143h1.62c.635 0 1.127.508 1.127 1.143v5.572c0 .62-.493 1.128-1.127 1.128h-1.62zm1.62-6.843h-1.62v5.858h1.62V81.23zM42.335 88.073V81.23h-1.572v6.843H39.62V81.23h-1.572v6.843H36.92V80.23h1.128v.604c.142-.432.54-.604 1.095-.604h.286c.57 0 .856.285 1.015.604.16-.432.445-.604 1-.604h.89c.62 0 1.127.508 1.127 1.127v6.716h-1.127zM51.246 88.073c-.46 0-.714-.492-.778-.745-.08.27-.317.745-.825.745h-1.16c-.62 0-1.127-.51-1.127-1.128V77.61h1.19v9.48h1.35v-9.48h1.144v9.48h1.35v-9.48h1.175v9.335c0 .62-.492 1.128-1.11 1.128h-1.21zM55.918 88.073c-.635 0-1.143-.51-1.143-1.128v-5.572c0-.635.508-1.143 1.143-1.143h1.62c.634 0 1.127.508 1.127 1.143v5.572c0 .62-.493 1.128-1.127 1.128h-1.62zm1.62-6.843h-1.62v5.858h1.62V81.23zM59.906 88.073V80.23h1.143v.604c.143-.304.444-.604 1.03-.604h.7v1h-1.73v6.843h-1.144zM64.576 88.073c-.62 0-1.127-.51-1.127-1.128v-5.588c0-.62.507-1.127 1.126-1.127h.826c.38 0 .635.125.794.3v-3.3h1.143v10.843h-2.764zm1.62-6.843h-1.604v5.858h1.604V81.23zM68.675 90.44V80.23h2.763c.62 0 1.127.508 1.127 1.143v5.572c0 .62-.508 1.128-1.127 1.128h-.667c-.523 0-.81-.238-.952-.51v2.876h-1.143zm2.763-9.21h-1.62v5.858h1.62V81.23zM73.806 88.073V80.23h1.143v.604c.142-.304.443-.604 1.03-.604h.7v1h-1.73v6.843h-1.144zM78.476 88.073c-.62 0-1.127-.51-1.127-1.128v-5.588c0-.62.507-1.127 1.126-1.127h1.635c.62 0 1.128.508 1.128 1.127v2.35c0 .636-.508 1.145-1.127 1.145h-1.634v2.238h1.62v-1.145h1.143v1c0 .62-.51 1.128-1.128 1.128h-1.636zm1.62-6.843h-1.62v2.62h1.62v-2.62zM83.494 88.073c-.635 0-1.143-.51-1.143-1.128V85.93h1.144v1.16h1.382v-1.48l-2.224-2.285c-.175-.19-.27-.333-.27-.73v-1.223c0-.636.51-1.144 1.144-1.144h1.35c.62 0 1.127.508 1.127 1.144v1h-1.127V81.23h-1.35v1.477l2.238 2.286c.176.19.24.397.24.618v1.335c0 .62-.51 1.128-1.128 1.128h-1.382zM88.165 88.073c-.635 0-1.143-.51-1.143-1.128V85.93h1.143v1.16h1.382v-1.48l-2.224-2.285c-.174-.19-.27-.333-.27-.73v-1.223c0-.636.51-1.144 1.144-1.144h1.35c.62 0 1.127.508 1.127 1.144v1h-1.127V81.23h-1.35v1.477l2.237 2.286c.176.19.24.397.24.618v1.335c0 .62-.508 1.128-1.127 1.128h-1.382zM94.965 88.073v-6.86h-1v-.983h1v-1.746h1.143v1.746h1.222v.982h-1.222v6.86h-1.143zM100.92 88.073V81.23H99.3v6.843H98.16V77.23H99.3v3.522c.145-.27.43-.522.954-.522h.667c.62 0 1.128.508 1.128 1.127v6.716h-1.127zM104.384 88.073c-.62 0-1.127-.51-1.127-1.128v-5.588c0-.62.508-1.127 1.127-1.127h1.635c.618 0 1.126.508 1.126 1.127v2.35c0 .636-.508 1.145-1.127 1.145h-1.636v2.238h1.62v-1.145h1.143v1c0 .62-.508 1.128-1.127 1.128h-1.636zm1.62-6.843h-1.62v2.62h1.62v-2.62zM113.77 88.073V81.23h-1.572v6.843h-1.143V81.23h-1.572v6.843h-1.127V80.23h1.127v.604c.143-.432.54-.604 1.095-.604h.286c.572 0 .857.285 1.017.604.16-.432.445-.604 1-.604h.89c.62 0 1.127.508 1.127 1.127v6.716h-1.127zM117.234 88.073c-.62 0-1.127-.51-1.127-1.128v-5.588c0-.62.508-1.127 1.127-1.127h1.636c.62 0 1.127.508 1.127 1.127v2.35c0 .636-.508 1.145-1.127 1.145h-1.636v2.238h1.62v-1.145h1.143v1c0 .62-.508 1.128-1.127 1.128h-1.636zm1.62-6.843h-1.62v2.62h1.62v-2.62zM124.255 88.073v-6.86h-.937v-.983h.937v-1.873c0-.62.508-1.127 1.127-1.127h1.413v.982h-1.413v2.018h1.318v.982h-1.318v6.86h-1.127zM128.514 88.073c-.637 0-1.145-.51-1.145-1.128v-5.572c0-.635.507-1.143 1.144-1.143h1.62c.634 0 1.126.508 1.126 1.143v5.572c0 .62-.492 1.128-1.127 1.128h-1.62zm1.62-6.843h-1.62v5.858h1.62V81.23zM132.5 88.073V80.23h1.145v.604c.144-.304.443-.604 1.03-.604h.7v1h-1.73v6.843H132.5zM139.81 88.073c-.638 0-1.146-.51-1.146-1.128V85.93h1.145v1.16h1.38v-1.48l-2.224-2.285c-.175-.19-.27-.333-.27-.73v-1.223c0-.636.508-1.144 1.144-1.144h1.35c.62 0 1.127.508 1.127 1.144v1h-1.127V81.23h-1.35v1.477l2.237 2.286c.176.19.24.397.24.618v1.335c0 .62-.51 1.128-1.128 1.128h-1.38zM143.984 88.073v-6.86h-1v-.983h1v-1.746h1.145v1.746h1.22v.982h-1.22v6.86h-1.146zM148.164 88.073c-.62 0-1.128-.51-1.128-1.128v-2.22c0-.622.508-1.13 1.128-1.13h.73c.443 0 .73.176.89.397V81.23h-1.62v1.38h-1.128v-1.253c0-.62.508-1.127 1.128-1.127h1.635c.62 0 1.127.508 1.127 1.127v6.716h-2.763zm1.62-3.492h-1.605v2.51h1.603v-2.51zM152.198 88.073V80.23h1.144v.604c.143-.304.444-.604 1.03-.604h.698v1h-1.73v6.843H152.2zM156.614 88.073v-6.86h-1v-.983h1v-1.746h1.144v1.746h1.22v.982h-1.22v6.86h-1.144zM159.73 79.167v-1.365h1.3v1.365h-1.3zm.08 8.906V80.23h1.143v7.843h-1.144zM165.11 88.073V81.23h-1.7v6.843h-1.125V80.23h1.126v.522c.16-.27.445-.522.97-.522h.745c.62 0 1.13.508 1.13 1.127v6.716h-1.146zM168.59 90.44c-.633 0-1.126-.493-1.126-1.128v-.62h1.126v.762h1.622v-2.097c-.16.27-.43.51-.97.51h-.652c-.633 0-1.126-.51-1.126-1.128v-5.383c0-.62.493-1.127 1.126-1.127h2.766v9.082c0 .635-.51 1.127-1.144 1.127h-1.622zm1.622-9.21h-1.622v5.638h1.622V81.23zM176.422 90.44c-.636 0-1.143-.51-1.143-1.145v-.763h1.142v.904h1.54v-2.08h-1.54c-.636 0-1.143-.508-1.143-1.127v-6h1.157v6.144h1.524V80.23h1.145v9.065c0 .636-.494 1.144-1.127 1.144h-1.556zM181.49 88.073c-.637 0-1.143-.51-1.143-1.128v-5.572c0-.635.506-1.143 1.142-1.143h1.617c.637 0 1.13.508 1.13 1.143v5.572c0 .62-.493 1.128-1.13 1.128h-1.618zm1.617-6.843h-1.618v5.858h1.617V81.23zM188.414 88.073l-.08-.62c-.19.43-.507.62-1.062.62h-.697c-.62 0-1.127-.51-1.127-1.128V80.23h1.143v6.858h1.685V80.23h1.144v7.843h-1.006zM190.75 88.073V80.23h1.145v.604c.146-.304.444-.604 1.03-.604h.7v1h-1.73v6.843h-1.144zM200.914 88.073c-.475 0-.762-.522-.792-.745-.062.223-.317.745-.825.745h-1.128c-.62 0-1.128-.51-1.128-1.128V80.23h1.158v6.858h1.35V80.23h1.144v6.858h1.38V80.23h1.13v6.715c0 .62-.51 1.128-1.13 1.128h-1.16zM205.54 88.073c-.62 0-1.127-.51-1.127-1.128v-5.588c0-.62.507-1.127 1.127-1.127h1.635c.62 0 1.127.508 1.127 1.127v2.35c0 .636-.507 1.145-1.127 1.145h-1.635v2.238h1.62v-1.145h1.142v1c0 .62-.507 1.128-1.127 1.128h-1.635zm1.62-6.843h-1.62v2.62h1.62v-2.62zM209.512 88.073V77.23h1.13v3.522c.157-.27.442-.522.968-.522h.648c.637 0 1.146.508 1.146 1.127v5.588c0 .62-.51 1.128-1.146 1.128h-2.746zm2.746-6.843h-1.617v5.858h1.618V81.23zM217.264 90.44V80.23h2.764c.617 0 1.13.508 1.13 1.143v5.572c0 .62-.513 1.128-1.13 1.128h-.666c-.524 0-.81-.238-.954-.51v2.876h-1.144zm2.763-9.21h-1.62v5.858h1.62V81.23zM222.396 88.073V80.23h1.144v.604c.142-.304.444-.604 1.03-.604h.7v1h-1.73v6.843h-1.144zM227.08 88.073c-.635 0-1.143-.51-1.143-1.128v-5.572c0-.635.508-1.143 1.144-1.143h1.62c.636 0 1.126.508 1.126 1.143v5.572c0 .62-.49 1.128-1.127 1.128h-1.62zm1.62-6.843h-1.62v5.858h1.62V81.23zM230.116 90.44v-.986h1.094V80.23h1.127v9.082c0 .635-.507 1.127-1.127 1.127h-1.094zm.968-11.273v-1.365h1.303v1.365h-1.303zM234.706 88.073c-.62 0-1.128-.51-1.128-1.128v-5.588c0-.62.508-1.127 1.128-1.127h1.634c.62 0 1.127.508 1.127 1.127v2.35c0 .636-.507 1.145-1.127 1.145h-1.634v2.238h1.618v-1.145h1.143v1c0 .62-.507 1.128-1.127 1.128h-1.634zm1.618-6.843h-1.618v2.62h1.618v-2.62zM239.725 88.073c-.634 0-1.143-.51-1.143-1.128v-5.588c0-.62.51-1.127 1.143-1.127h1.62c.634 0 1.128.508 1.128 1.127v1.412h-1.127v-1.54h-1.62v5.858h1.62V85.61h1.127v1.334c0 .62-.494 1.127-1.127 1.127l-1.62.003zM244.143 88.073v-6.86h-1v-.983h1v-1.746h1.145v1.746h1.22v.982h-1.22v6.86h-1.145z"/></g></svg>