<?xml version="1.0" encoding="iso-8859-1"?>
<!-- Generator: Adobe Illustrator 16.0.4, SVG Export Plug-In . SVG Version: 6.00 Build 0)  -->
<!DOCTYPE svg PUBLIC "-//W3C//DTD SVG 1.1//EN" "http://www.w3.org/Graphics/SVG/1.1/DTD/svg11.dtd">
<svg version="1.1" id="Layer_1" xmlns="http://www.w3.org/2000/svg" xmlns:xlink="http://www.w3.org/1999/xlink" x="0px" y="0px"
	 width="746.996px" height="240.792px" viewBox="0 0 746.996 240.792" style="enable-background:new 0 0 746.996 240.792;"
	 xml:space="preserve">
<path style="fill:#fff;" d="M0,0h37.32v169.639H0V0z"/>
<path style="fill:#fff;" d="M69.019,0h34.413l79.488,104.449V0h36.836v169.639h-31.747L105.855,61.797v107.842H69.019V0z"/>
<path style="fill:#CE2922;" d="M242.995,141.285l93.301-108.569h-90.394V0H384.28v28.354l-93.302,108.568h312.085v32.716H242.995
	V141.285z"/>
<path style="fill:#fff;" d="M410.088,0h37.32v125.33h-37.32V0z"/>
<path style="fill:#fff;" d="M514.125,34.413h-51.618V0h140.557v34.413h-51.619v90.917h-37.319V34.413z"/>
<path style="fill:#fff;" d="M617.82,0h127.956v33.202h-90.875v34.411h79.971v33.2h-79.971v35.625h92.087v33.2H617.82V0z"/>
<path style="fill:#fff;" d="M59.864,238.916c0,0.229-0.06,0.426-0.177,0.595c-0.116,0.169-0.322,0.305-0.612,0.403
	c-0.292,0.098-0.665,0.188-1.116,0.259c-0.455,0.064-1.044,0.102-1.773,0.102c-0.671,0-1.249-0.037-1.731-0.102
	c-0.484-0.07-0.861-0.161-1.143-0.259c-0.277-0.099-0.473-0.234-0.593-0.403c-0.117-0.173-0.172-0.366-0.172-0.595v-47.951h-0.086
	l-19.402,48.167c-0.084,0.196-0.205,0.367-0.362,0.505c-0.155,0.147-0.385,0.265-0.682,0.364c-0.299,0.102-0.653,0.172-1.063,0.215
	c-0.413,0.04-0.902,0.062-1.469,0.062c-0.596,0-1.107-0.026-1.531-0.086c-0.425-0.055-0.782-0.129-1.063-0.233
	c-0.283-0.096-0.503-0.216-0.659-0.358c-0.154-0.142-0.261-0.301-0.318-0.468l-18.55-48.163H7.317v47.951
	c0,0.225-0.06,0.424-0.176,0.595c-0.117,0.165-0.322,0.301-0.613,0.405c-0.292,0.096-0.672,0.186-1.142,0.253
	c-0.466,0.068-1.065,0.104-1.794,0.104c-0.701,0-1.288-0.036-1.754-0.104c-0.467-0.067-0.839-0.157-1.117-0.253
	c-0.277-0.104-0.466-0.24-0.571-0.405c-0.1-0.173-0.151-0.37-0.151-0.599v-50.634c0-1.188,0.319-2.036,0.949-2.551
	c0.632-0.514,1.338-0.767,2.118-0.767h4.494c0.921,0,1.725,0.086,2.419,0.256c0.693,0.172,1.294,0.438,1.813,0.813
	c0.518,0.363,0.95,0.835,1.297,1.397c0.347,0.567,0.65,1.239,0.908,2.003L29.742,229.3h0.21l16.38-39.739
	c0.318-0.85,0.662-1.573,1.038-2.171c0.376-0.592,0.786-1.072,1.234-1.421c0.446-0.354,0.942-0.609,1.491-0.767
	c0.547-0.154,1.183-0.233,1.902-0.233h4.713c0.433,0,0.846,0.067,1.233,0.193c0.388,0.129,0.719,0.326,0.99,0.591
	c0.274,0.274,0.498,0.613,0.671,1.023c0.171,0.412,0.259,0.914,0.259,1.513V238.916z"/>
<path style="fill:#fff;" d="M103.285,237c0,0.511-0.029,0.962-0.086,1.343c-0.055,0.383-0.154,0.703-0.296,0.956
	c-0.142,0.258-0.306,0.443-0.49,0.557c-0.185,0.111-0.39,0.17-0.615,0.17H75.376c-0.653,0-1.268-0.217-1.852-0.659
	c-0.58-0.44-0.87-1.211-0.87-2.316v-49.104c0-1.106,0.29-1.881,0.87-2.319c0.584-0.44,1.198-0.658,1.852-0.658H101.5
	c0.226,0,0.431,0.061,0.614,0.172c0.187,0.11,0.334,0.299,0.448,0.555c0.113,0.256,0.205,0.572,0.277,0.955
	c0.069,0.385,0.108,0.862,0.108,1.426c0,0.512-0.039,0.958-0.108,1.34c-0.072,0.385-0.165,0.696-0.277,0.937
	c-0.114,0.24-0.262,0.418-0.448,0.535c-0.183,0.112-0.391,0.167-0.614,0.167H79.972v17.277h18.465c0.226,0,0.433,0.064,0.614,0.194
	c0.187,0.122,0.342,0.305,0.467,0.529c0.126,0.229,0.222,0.542,0.279,0.937c0.057,0.4,0.084,0.865,0.084,1.404
	c0,0.509-0.03,0.955-0.084,1.318c-0.057,0.366-0.149,0.666-0.279,0.894c-0.129,0.229-0.283,0.389-0.467,0.49
	c-0.182,0.095-0.391,0.147-0.614,0.147H79.972v19.698h21.827c0.225,0,0.433,0.062,0.615,0.173c0.184,0.11,0.348,0.289,0.49,0.529
	s0.244,0.556,0.296,0.938C103.253,235.959,103.285,236.434,103.285,237z"/>
<path style="fill:#fff;" d="M154.708,211.687c0,4.768-0.611,8.927-1.829,12.488c-1.22,3.561-2.999,6.505-5.34,8.85
	c-2.336,2.337-5.21,4.09-8.611,5.254c-3.407,1.161-7.462,1.743-12.169,1.743h-11.661c-0.653,0-1.269-0.213-1.85-0.658
	c-0.583-0.44-0.873-1.211-0.873-2.313v-49.104c0-1.106,0.29-1.881,0.873-2.319c0.581-0.44,1.2-0.658,1.85-0.658h12.464
	c4.767,0,8.794,0.618,12.084,1.854c3.29,1.232,6.047,3.003,8.277,5.316c2.227,2.311,3.915,5.113,5.062,8.403
	C154.135,203.831,154.708,207.543,154.708,211.687z M147.006,211.984c0-2.978-0.37-5.75-1.108-8.318
	c-0.735-2.567-1.893-4.787-3.465-6.657c-1.574-1.876-3.568-3.336-5.977-4.384c-2.414-1.053-5.52-1.577-9.318-1.577h-7.445v42.848
	h7.533c3.518,0,6.479-0.441,8.892-1.318c2.41-0.878,4.423-2.23,6.04-4.042c1.619-1.814,2.829-4.091,3.638-6.829
	C146.605,218.971,147.006,215.733,147.006,211.984z"/>
<path style="fill:#fff;" d="M171.905,238.916c0,0.229-0.06,0.426-0.171,0.595c-0.112,0.169-0.311,0.305-0.596,0.403
	c-0.283,0.098-0.659,0.188-1.126,0.259c-0.466,0.064-1.057,0.102-1.767,0.102c-0.681,0-1.261-0.037-1.744-0.102
	c-0.483-0.07-0.864-0.161-1.148-0.259c-0.284-0.099-0.482-0.234-0.597-0.403c-0.117-0.173-0.169-0.366-0.169-0.595v-52.845
	c0-0.226,0.063-0.426,0.192-0.592c0.129-0.17,0.34-0.306,0.639-0.406c0.297-0.099,0.682-0.187,1.149-0.254s1.027-0.104,1.677-0.104
	c0.71,0,1.3,0.037,1.767,0.104c0.467,0.067,0.846,0.155,1.126,0.254c0.285,0.101,0.483,0.236,0.596,0.406
	c0.114,0.172,0.171,0.366,0.171,0.592V238.916z"/>
<path style="fill:#fff;" d="M226.53,237.432c0.228,0.619,0.348,1.121,0.363,1.51c0.013,0.381-0.092,0.674-0.318,0.867
	c-0.228,0.198-0.602,0.33-1.129,0.383c-0.523,0.061-1.228,0.086-2.104,0.086c-0.881,0-1.583-0.021-2.107-0.062
	c-0.526-0.043-0.921-0.113-1.189-0.215c-0.273-0.1-0.466-0.234-0.596-0.404s-0.25-0.382-0.364-0.638l-4.725-13.402h-22.89
	l-4.511,13.233c-0.085,0.25-0.199,0.471-0.34,0.658c-0.139,0.183-0.347,0.343-0.614,0.466c-0.27,0.129-0.656,0.219-1.149,0.277
	c-0.498,0.06-1.141,0.083-1.936,0.083c-0.824,0-1.495-0.037-2.022-0.102c-0.527-0.07-0.896-0.209-1.107-0.409
	c-0.211-0.201-0.313-0.489-0.296-0.872c0.015-0.382,0.135-0.885,0.361-1.509l18.465-51.14c0.114-0.313,0.262-0.567,0.449-0.767
	c0.183-0.194,0.454-0.354,0.807-0.471c0.353-0.109,0.807-0.188,1.363-0.229c0.554-0.042,1.255-0.067,2.104-0.067
	c0.908,0,1.659,0.025,2.255,0.067c0.596,0.043,1.076,0.12,1.444,0.229c0.37,0.116,0.653,0.282,0.852,0.491
	c0.195,0.214,0.353,0.475,0.466,0.789L226.53,237.432z M202.836,192.287h-0.044l-9.488,27.439h19.143L202.836,192.287z"/>
<path style="fill:#fff;" d="M252.698,225.518c0-1.562,0.211-3.05,0.636-4.448c0.427-1.405,1.092-2.767,2.001-4.084
	c0.907-1.319,2.09-2.598,3.552-3.829c1.459-1.235,3.223-2.474,5.294-3.725c-1.135-1.531-2.104-2.924-2.914-4.172
	c-0.811-1.243-1.478-2.407-2.001-3.485c-0.526-1.078-0.901-2.107-1.129-3.088c-0.226-0.978-0.34-1.961-0.34-2.959
	c0-1.756,0.297-3.438,0.893-5.04c0.596-1.604,1.554-3.021,2.873-4.26c1.318-1.232,3.012-2.205,5.085-2.932
	c2.068-0.722,4.581-1.085,7.528-1.085c2.499,0,4.663,0.268,6.492,0.807c1.83,0.54,3.347,1.304,4.551,2.299
	c1.206,0.992,2.115,2.189,2.723,3.598c0.608,1.398,0.915,2.969,0.915,4.7c0,1.676-0.268,3.203-0.808,4.59
	c-0.539,1.393-1.403,2.741-2.595,4.045c-1.189,1.302-2.715,2.602-4.574,3.893c-1.857,1.291-4.103,2.646-6.743,4.063
	c0.964,1.164,2.012,2.375,3.148,3.635c1.135,1.26,2.318,2.534,3.551,3.808c1.232,1.274,2.499,2.531,3.784,3.767
	c1.291,1.235,2.561,2.418,3.811,3.552c0.568-0.765,1.08-1.639,1.531-2.615c0.453-0.98,0.852-2.015,1.189-3.108
	c0.34-1.09,0.596-2.201,0.765-3.342c0.171-1.13,0.256-2.279,0.256-3.443v-1.534c0-0.281,0.051-0.515,0.148-0.7
	c0.098-0.184,0.261-0.339,0.489-0.468c0.227-0.129,0.561-0.216,1-0.277c0.438-0.055,1.016-0.08,1.722-0.08
	c0.625,0,1.158,0.012,1.597,0.041c0.438,0.03,0.801,0.095,1.084,0.193c0.281,0.1,0.49,0.252,0.615,0.468
	c0.129,0.21,0.192,0.503,0.192,0.869v1.065c0,1.59-0.132,3.148-0.403,4.676c-0.268,1.535-0.638,3.031-1.107,4.492
	c-0.467,1.46-1.05,2.854-1.744,4.188c-0.694,1.337-1.467,2.565-2.318,3.702c1.277,1.022,2.391,1.873,3.339,2.554
	c0.95,0.682,1.761,1.235,2.426,1.66c0.666,0.426,1.221,0.721,1.66,0.894c0.438,0.166,0.801,0.253,1.084,0.253
	c0.284,0,0.556-0.013,0.807-0.043c0.256-0.028,0.46,0.015,0.619,0.129c0.157,0.114,0.277,0.339,0.362,0.678
	c0.086,0.339,0.129,0.862,0.129,1.574s-0.015,1.278-0.043,1.7c-0.029,0.428-0.077,0.748-0.149,0.965
	c-0.069,0.209-0.193,0.387-0.362,0.528c-0.171,0.143-0.484,0.271-0.933,0.383c-0.455,0.111-1.051,0.172-1.787,0.172
	c-0.566,0-1.192-0.099-1.873-0.295c-0.681-0.2-1.477-0.552-2.381-1.048c-0.908-0.492-1.965-1.171-3.171-2.021
	c-1.204-0.856-2.616-1.928-4.232-3.233c-1.189,0.966-2.444,1.859-3.763,2.683c-1.318,0.825-2.726,1.524-4.21,2.106
	c-1.489,0.583-3.051,1.035-4.682,1.361c-1.63,0.333-3.396,0.496-5.295,0.496c-1.786,0-3.482-0.157-5.082-0.469
	c-1.603-0.313-3.084-0.758-4.447-1.339c-1.36-0.583-2.58-1.31-3.66-2.191c-1.078-0.877-1.993-1.879-2.744-3
	c-0.75-1.117-1.334-2.372-1.744-3.764C252.903,228.635,252.698,227.131,252.698,225.518z M260.311,224.797
	c0,1.472,0.25,2.82,0.745,4.037c0.498,1.224,1.227,2.276,2.192,3.17c0.966,0.891,2.17,1.586,3.615,2.086
	c1.444,0.496,3.118,0.742,5.022,0.742c1.163,0,2.294-0.117,3.402-0.36c1.107-0.244,2.164-0.569,3.171-0.982
	c1.006-0.413,1.964-0.907,2.873-1.488c0.909-0.583,1.745-1.199,2.51-1.852c-1.475-1.275-2.942-2.602-4.403-3.977
	c-1.46-1.376-2.873-2.76-4.233-4.152c-1.363-1.383-2.675-2.769-3.937-4.143c-1.261-1.377-2.419-2.717-3.47-4.02
	c-1.416,0.905-2.602,1.808-3.548,2.7c-0.952,0.895-1.716,1.784-2.3,2.681c-0.583,0.894-1,1.793-1.255,2.698
	C260.44,222.85,260.311,223.799,260.311,224.797z M265.247,195.18c0,0.764,0.108,1.546,0.319,2.337
	c0.211,0.796,0.541,1.628,0.981,2.489c0.439,0.862,0.978,1.792,1.616,2.788c0.64,0.994,1.396,2.101,2.278,3.32
	c2.068-1.162,3.805-2.233,5.21-3.213c1.403-0.983,2.529-1.923,3.38-2.827c0.855-0.906,1.471-1.817,1.852-2.725
	c0.385-0.904,0.578-1.872,0.578-2.894c0-0.823-0.148-1.608-0.448-2.36c-0.296-0.748-0.772-1.414-1.425-1.996
	c-0.653-0.585-1.474-1.047-2.467-1.382c-0.993-0.344-2.182-0.512-3.573-0.512c-1.505,0-2.772,0.193-3.807,0.575
	c-1.039,0.382-1.887,0.891-2.556,1.528c-0.665,0.64-1.158,1.38-1.466,2.233C265.406,193.396,265.247,194.27,265.247,195.18z"/>
<path style="fill:#fff;" d="M394.42,238.916c0,0.229-0.062,0.426-0.174,0.595c-0.123,0.169-0.326,0.305-0.616,0.403
	c-0.295,0.098-0.664,0.188-1.12,0.259c-0.449,0.064-1.042,0.102-1.768,0.102c-0.673,0-1.251-0.037-1.731-0.102
	c-0.48-0.07-0.863-0.161-1.14-0.259c-0.277-0.099-0.476-0.234-0.599-0.403c-0.11-0.173-0.172-0.366-0.172-0.595v-47.951h-0.08
	l-19.402,48.167c-0.085,0.196-0.205,0.367-0.362,0.505c-0.155,0.147-0.385,0.265-0.683,0.364c-0.295,0.102-0.652,0.172-1.062,0.215
	c-0.412,0.04-0.902,0.062-1.47,0.062c-0.596,0-1.106-0.026-1.532-0.086c-0.423-0.055-0.778-0.129-1.064-0.233
	c-0.283-0.096-0.503-0.216-0.658-0.358c-0.157-0.142-0.262-0.301-0.318-0.468l-18.551-48.163h-0.04v47.951
	c0,0.225-0.06,0.424-0.177,0.595c-0.116,0.165-0.322,0.301-0.611,0.405c-0.293,0.096-0.673,0.186-1.143,0.253
	c-0.466,0.068-1.065,0.104-1.794,0.104c-0.701,0-1.288-0.036-1.754-0.104c-0.467-0.067-0.839-0.157-1.117-0.253
	c-0.277-0.104-0.466-0.24-0.57-0.405c-0.102-0.173-0.152-0.37-0.152-0.595v-50.638c0-1.188,0.318-2.036,0.949-2.551
	c0.633-0.511,1.341-0.767,2.117-0.767h4.492c0.92,0,1.729,0.086,2.419,0.256c0.69,0.172,1.296,0.438,1.813,0.813
	c0.518,0.363,0.952,0.835,1.296,1.397c0.345,0.567,0.649,1.239,0.909,2.003l15.742,39.865h0.212l16.382-39.739
	c0.314-0.85,0.659-1.573,1.035-2.171c0.376-0.592,0.782-1.072,1.232-1.421c0.449-0.354,0.942-0.609,1.49-0.767
	c0.549-0.154,1.184-0.233,1.904-0.233h4.712c0.433,0,0.845,0.067,1.232,0.193c0.389,0.129,0.721,0.326,0.992,0.591
	c0.271,0.274,0.498,0.613,0.672,1.023c0.173,0.412,0.259,0.914,0.259,1.513V238.916L394.42,238.916z"/>
<path style="fill:#fff;" d="M449.045,237.432c0.229,0.619,0.346,1.121,0.357,1.51c0.013,0.381-0.086,0.674-0.319,0.867
	c-0.229,0.198-0.598,0.33-1.122,0.383c-0.529,0.061-1.232,0.086-2.112,0.086c-0.882,0-1.578-0.021-2.107-0.062
	c-0.518-0.043-0.918-0.113-1.189-0.215c-0.271-0.1-0.462-0.234-0.591-0.404c-0.13-0.17-0.253-0.382-0.364-0.638l-4.725-13.402
	h-22.88l-4.517,13.233c-0.08,0.25-0.197,0.471-0.339,0.658c-0.142,0.183-0.345,0.343-0.616,0.466
	c-0.265,0.129-0.652,0.219-1.146,0.277c-0.499,0.06-1.14,0.083-1.935,0.083c-0.825,0-1.504-0.037-2.026-0.102
	c-0.524-0.07-0.894-0.209-1.103-0.409c-0.216-0.195-0.314-0.489-0.302-0.872c0.018-0.382,0.135-0.885,0.363-1.509l18.464-51.14
	c0.115-0.313,0.258-0.567,0.443-0.767c0.19-0.194,0.455-0.354,0.807-0.471c0.357-0.109,0.807-0.188,1.361-0.229
	c0.555-0.042,1.257-0.067,2.106-0.067c0.906,0,1.657,0.025,2.255,0.067c0.592,0.043,1.072,0.12,1.448,0.229
	c0.363,0.116,0.646,0.282,0.844,0.491c0.196,0.214,0.357,0.475,0.468,0.789L449.045,237.432z M425.346,192.287h-0.037l-9.487,27.439
	h19.142L425.346,192.287z"/>
<path style="fill:#fff;" d="M493.771,238.916c0,0.229-0.044,0.426-0.123,0.595c-0.086,0.169-0.271,0.312-0.555,0.428
	c-0.29,0.111-0.685,0.194-1.196,0.253c-0.51,0.06-1.188,0.083-2.038,0.083c-0.739,0-1.343-0.027-1.811-0.083
	c-0.462-0.059-0.845-0.148-1.122-0.277c-0.283-0.123-0.506-0.305-0.665-0.529c-0.154-0.229-0.29-0.512-0.4-0.854l-5.064-12.978
	c-0.591-1.476-1.214-2.827-1.848-4.062c-0.641-1.232-1.399-2.302-2.279-3.191c-0.881-0.894-1.916-1.586-3.104-2.086
	c-1.19-0.496-2.626-0.738-4.302-0.738h-4.891v23.44c0,0.229-0.062,0.426-0.19,0.599c-0.13,0.165-0.328,0.301-0.598,0.399
	c-0.271,0.098-0.642,0.188-1.104,0.259c-0.468,0.064-1.06,0.102-1.768,0.102s-1.3-0.037-1.768-0.102
	c-0.47-0.07-0.846-0.161-1.128-0.259c-0.284-0.099-0.48-0.234-0.592-0.399c-0.117-0.177-0.173-0.37-0.173-0.599v-50.97
	c0-1.106,0.29-1.881,0.869-2.319c0.579-0.438,1.201-0.658,1.849-0.658h11.705c1.385,0,2.544,0.037,3.468,0.104
	c0.918,0.073,1.749,0.15,2.482,0.236c2.133,0.366,4.012,0.952,5.637,1.743c1.634,0.795,3.001,1.802,4.109,3.022
	c1.109,1.22,1.936,2.615,2.489,4.188c0.555,1.575,0.831,3.315,0.831,5.213c0,1.841-0.252,3.493-0.745,4.952
	c-0.498,1.461-1.213,2.754-2.15,3.875c-0.936,1.122-2.057,2.093-3.363,2.914c-1.307,0.823-2.766,1.516-4.38,2.086
	c0.905,0.397,1.731,0.902,2.47,1.513c0.733,0.604,1.424,1.337,2.059,2.186c0.641,0.851,1.244,1.831,1.811,2.939
	c0.561,1.106,1.135,2.354,1.7,3.743l4.936,12.124c0.394,1.022,0.652,1.739,0.763,2.153
	C493.716,238.367,493.771,238.688,493.771,238.916z M482.756,200.246c0-2.16-0.486-3.982-1.447-5.467
	c-0.968-1.495-2.582-2.561-4.849-3.214c-0.709-0.2-1.51-0.338-2.403-0.429c-0.898-0.082-2.062-0.126-3.511-0.126h-6.173v18.551
	h7.151c1.924,0,3.593-0.234,4.997-0.706c1.404-0.465,2.575-1.117,3.511-1.956c0.938-0.835,1.627-1.817,2.064-2.956
	C482.535,202.81,482.756,201.577,482.756,200.246z"/>
<path style="fill:#fff;" d="M538.159,238.83c0,0.229-0.05,0.438-0.148,0.618c-0.099,0.183-0.29,0.331-0.573,0.444
	c-0.283,0.114-0.665,0.21-1.146,0.28c-0.487,0.068-1.109,0.104-1.873,0.104c-0.992,0-1.805-0.04-2.428-0.126
	c-0.622-0.083-1.097-0.237-1.404-0.472c-0.314-0.222-0.567-0.478-0.764-0.76l-20.25-27.53v27.53c0,0.196-0.055,0.391-0.172,0.572
	c-0.118,0.188-0.315,0.33-0.599,0.428c-0.283,0.1-0.659,0.188-1.121,0.259c-0.468,0.065-1.06,0.102-1.768,0.102
	c-0.685,0-1.264-0.036-1.75-0.102c-0.48-0.07-0.863-0.159-1.146-0.259c-0.284-0.098-0.486-0.24-0.598-0.428
	c-0.11-0.182-0.173-0.373-0.173-0.572v-52.849c0-0.226,0.062-0.426,0.173-0.592c0.111-0.166,0.313-0.306,0.598-0.406
	c0.282-0.099,0.658-0.187,1.146-0.254c0.486-0.067,1.065-0.104,1.75-0.104c0.708,0,1.294,0.037,1.768,0.104
	c0.469,0.067,0.845,0.155,1.121,0.254c0.283,0.101,0.48,0.236,0.599,0.406c0.117,0.172,0.172,0.366,0.172,0.592v24.466l19.48-24.466
	c0.178-0.253,0.368-0.466,0.603-0.636c0.223-0.173,0.499-0.309,0.826-0.403c0.333-0.099,0.728-0.182,1.195-0.234
	c0.468-0.058,1.065-0.083,1.806-0.083c0.738,0,1.329,0.037,1.786,0.104c0.455,0.067,0.819,0.167,1.084,0.278
	c0.271,0.113,0.456,0.253,0.555,0.425c0.098,0.173,0.147,0.354,0.147,0.555c0,0.37-0.092,0.739-0.277,1.108
	c-0.178,0.367-0.53,0.878-1.041,1.532l-18.254,21.822l19.658,26.122c0.48,0.735,0.771,1.244,0.869,1.512
	C538.109,238.439,538.159,238.66,538.159,238.83z"/>
<path style="fill:#fff;" d="M576.668,237c0,0.511-0.036,0.962-0.086,1.343c-0.062,0.383-0.154,0.703-0.296,0.956
	c-0.142,0.258-0.308,0.443-0.492,0.557c-0.186,0.111-0.389,0.17-0.616,0.17h-26.423c-0.653,0-1.27-0.217-1.848-0.659
	c-0.58-0.44-0.876-1.211-0.876-2.316v-49.104c0-1.106,0.296-1.881,0.876-2.319c0.578-0.438,1.194-0.658,1.848-0.658h26.127
	c0.228,0,0.425,0.061,0.616,0.172c0.184,0.11,0.332,0.299,0.449,0.555c0.11,0.256,0.204,0.572,0.277,0.955
	c0.067,0.385,0.104,0.862,0.104,1.426c0,0.512-0.037,0.958-0.104,1.34c-0.073,0.385-0.167,0.696-0.277,0.937
	c-0.117,0.24-0.266,0.418-0.449,0.535c-0.191,0.112-0.389,0.167-0.616,0.167h-21.531v17.277h18.463c0.229,0,0.432,0.064,0.616,0.194
	c0.185,0.122,0.339,0.305,0.469,0.529c0.129,0.229,0.222,0.542,0.276,0.937c0.056,0.4,0.087,0.865,0.087,1.404
	c0,0.509-0.031,0.955-0.087,1.318c-0.055,0.366-0.147,0.666-0.276,0.894c-0.13,0.229-0.284,0.389-0.469,0.49
	c-0.185,0.095-0.395,0.147-0.616,0.147h-18.463v19.698h21.827c0.228,0,0.431,0.062,0.616,0.173c0.185,0.11,0.351,0.289,0.492,0.529
	s0.233,0.556,0.296,0.938C576.632,235.959,576.668,236.434,576.668,237z"/>
<path style="fill:#fff;" d="M623.588,188.116c0,0.542-0.031,1.007-0.087,1.404s-0.147,0.722-0.271,0.958
	c-0.13,0.24-0.284,0.422-0.469,0.532c-0.185,0.114-0.395,0.167-0.616,0.167h-15.487v47.742c0,0.225-0.062,0.424-0.173,0.595
	c-0.111,0.165-0.314,0.301-0.592,0.405c-0.282,0.096-0.658,0.186-1.133,0.253c-0.462,0.068-1.054,0.104-1.762,0.104
	c-0.679,0-1.264-0.036-1.744-0.104c-0.486-0.067-0.869-0.157-1.151-0.253c-0.284-0.104-0.48-0.24-0.598-0.405
	c-0.11-0.173-0.167-0.37-0.167-0.595v-47.742h-15.487c-0.229,0-0.432-0.055-0.616-0.17c-0.191-0.113-0.333-0.292-0.45-0.532
	c-0.11-0.24-0.202-0.561-0.277-0.958c-0.073-0.397-0.104-0.866-0.104-1.404c0-0.539,0.031-1.014,0.104-1.421
	c0.075-0.415,0.167-0.745,0.277-1.001c0.111-0.256,0.259-0.44,0.45-0.558c0.185-0.111,0.388-0.169,0.616-0.169h38.294
	c0.222,0,0.432,0.058,0.616,0.169c0.185,0.117,0.339,0.302,0.469,0.558c0.123,0.256,0.222,0.589,0.271,1.001
	C623.557,187.1,623.588,187.576,623.588,188.116z"/>
<path style="fill:#fff;" d="M638.114,238.916c0,0.229-0.056,0.426-0.173,0.595s-0.313,0.305-0.598,0.403
	c-0.283,0.098-0.659,0.188-1.121,0.259c-0.469,0.064-1.06,0.102-1.769,0.102c-0.683,0-1.262-0.037-1.742-0.102
	c-0.487-0.07-0.869-0.161-1.153-0.259c-0.282-0.099-0.48-0.234-0.591-0.403c-0.117-0.173-0.172-0.366-0.172-0.595v-52.845
	c0-0.226,0.067-0.426,0.19-0.592c0.129-0.17,0.339-0.306,0.641-0.406c0.296-0.099,0.678-0.187,1.146-0.254s1.028-0.104,1.682-0.104
	c0.709,0,1.294,0.037,1.769,0.104c0.468,0.067,0.844,0.155,1.121,0.254c0.284,0.101,0.48,0.236,0.598,0.406
	c0.117,0.172,0.173,0.366,0.173,0.592V238.916z"/>
<path style="fill:#fff;" d="M692.519,237c0,0.573-0.093,1.051-0.284,1.448c-0.196,0.397-0.443,0.721-0.752,0.979
	c-0.308,0.253-0.646,0.441-1.028,0.556c-0.382,0.113-0.758,0.172-1.146,0.172h-2.421c-0.764,0-1.43-0.08-2.003-0.234
	c-0.572-0.156-1.114-0.44-1.626-0.854c-0.512-0.408-1.029-0.971-1.54-1.679c-0.518-0.705-1.06-1.616-1.64-2.723l-16.787-31.314
	c-0.881-1.613-1.768-3.312-2.661-5.082c-0.887-1.774-1.719-3.493-2.489-5.172h-0.086c0.056,2.043,0.104,4.132,0.13,6.257
	c0.03,2.125,0.043,4.24,0.043,6.335v33.231c0,0.199-0.056,0.391-0.179,0.572c-0.124,0.188-0.327,0.33-0.604,0.428
	c-0.289,0.1-0.658,0.188-1.12,0.259c-0.469,0.065-1.055,0.102-1.775,0.102s-1.312-0.036-1.773-0.102
	c-0.462-0.07-0.832-0.159-1.104-0.259c-0.264-0.098-0.456-0.24-0.579-0.428c-0.123-0.182-0.185-0.373-0.185-0.572v-50.804
	c0-1.134,0.327-1.94,0.968-2.425c0.646-0.48,1.349-0.723,2.106-0.723h3.598c0.856,0,1.565,0.069,2.132,0.211
	c0.579,0.146,1.084,0.376,1.54,0.703c0.456,0.329,0.894,0.779,1.312,1.358c0.426,0.589,0.869,1.318,1.338,2.196l12.913,24.165
	c0.794,1.479,1.559,2.914,2.303,4.318c0.74,1.398,1.448,2.788,2.139,4.146c0.69,1.362,1.361,2.699,2.039,4.021
	c0.672,1.318,1.33,2.646,1.989,3.978h0.044c-0.056-2.237-0.093-4.572-0.105-7c-0.012-2.427-0.023-4.755-0.023-6.998v-29.872
	c0-0.195,0.066-0.383,0.184-0.549c0.124-0.172,0.32-0.323,0.604-0.45c0.289-0.129,0.659-0.215,1.121-0.277
	c0.462-0.055,1.072-0.085,1.817-0.085c0.659,0,1.226,0.03,1.706,0.085c0.474,0.062,0.856,0.148,1.121,0.277
	c0.271,0.127,0.462,0.278,0.585,0.45c0.117,0.166,0.18,0.352,0.18,0.549V237z"/>
<path style="fill:#fff;" d="M746.996,192.456c0,0.539-0.031,1.014-0.086,1.426c-0.062,0.413-0.142,0.752-0.259,1.02
	c-0.111,0.271-0.253,0.459-0.426,0.576c-0.172,0.114-0.351,0.174-0.548,0.174c-0.345,0-0.911-0.271-1.707-0.809
	c-0.794-0.542-1.859-1.136-3.19-1.79c-1.337-0.652-2.933-1.249-4.787-1.786c-1.86-0.535-4.065-0.81-6.616-0.81
	c-3.038,0-5.754,0.558-8.169,1.663s-4.454,2.637-6.124,4.59c-1.676,1.96-2.963,4.284-3.856,6.98
	c-0.887,2.695-1.336,5.618-1.336,8.766c0,3.512,0.486,6.635,1.465,9.358c0.98,2.729,2.329,5.021,4.06,6.894
	c1.732,1.873,3.796,3.289,6.192,4.257c2.402,0.968,5.033,1.448,7.892,1.448c1.7,0,3.425-0.207,5.175-0.62
	c1.743-0.408,3.364-1.024,4.873-1.851V215.9h-12.765c-0.48,0-0.85-0.237-1.084-0.721c-0.246-0.48-0.363-1.235-0.363-2.255
	c0-0.539,0.024-0.998,0.079-1.38c0.062-0.389,0.155-0.699,0.284-0.937c0.123-0.24,0.276-0.422,0.443-0.536
	c0.173-0.111,0.382-0.169,0.641-0.169h17.484c0.313,0,0.622,0.058,0.936,0.169c0.314,0.114,0.598,0.289,0.851,0.512
	c0.253,0.228,0.456,0.542,0.598,0.936c0.136,0.401,0.216,0.854,0.216,1.362v20.974c0,0.739-0.13,1.379-0.389,1.916
	c-0.253,0.535-0.795,1.013-1.62,1.426c-0.819,0.413-1.885,0.854-3.191,1.341c-1.306,0.482-2.648,0.889-4.041,1.232
	c-1.386,0.341-2.791,0.597-4.208,0.766c-1.423,0.173-2.827,0.256-4.214,0.256c-4.25,0-8.058-0.659-11.402-1.978
	c-3.346-1.318-6.18-3.2-8.484-5.637c-2.315-2.443-4.078-5.363-5.297-8.763c-1.22-3.408-1.83-7.209-1.83-11.403
	c0-4.369,0.658-8.324,1.977-11.872c1.318-3.543,3.18-6.567,5.576-9.063c2.396-2.494,5.273-4.429,8.638-5.809
	c3.357-1.374,7.084-2.064,11.169-2.064c2.094,0,4.066,0.192,5.907,0.556c1.849,0.368,3.48,0.804,4.916,1.3
	c1.436,0.493,2.637,1.035,3.617,1.616c0.979,0.583,1.65,1.057,2.021,1.427c0.369,0.369,0.628,0.795,0.764,1.275
	C746.923,190.852,746.996,191.554,746.996,192.456z"/>
</svg>
