<?xml version="1.0" standalone="no"?><!DOCTYPE svg PUBLIC "-//W3C//DTD SVG 1.1//EN" "http://www.w3.org/Graphics/SVG/1.1/DTD/svg11.dtd"><svg width="100%" height="100%" viewBox="0 0 500 146" version="1.1" xmlns="http://www.w3.org/2000/svg" xmlns:xlink="http://www.w3.org/1999/xlink" xml:space="preserve" style="fill-rule:evenodd;clip-rule:evenodd;stroke-linejoin:round;stroke-miterlimit:1.41421;"><path d="M352.294,146l0,-20.238l-10.714,20.238l-7.48,0l-10.714,-20.238l0,20.238l-7.793,0l0,-28.815l10.587,0l11.66,21.81l11.66,-21.81l10.545,0l0,28.815l-7.751,0Z" style="fill:#fff;fill-rule:nonzero;"/><path d="M369.079,146l0,-28.815l29.222,0l0,6.144l-21.219,0l0,4.761l20.126,0l0,6.144l-20.126,0l0,5.621l21.513,0l0,6.145l-29.516,0Z" style="fill:#fff;fill-rule:nonzero;"/><path d="M441.472,131.571c0,1.845 -0.203,3.485 -0.609,4.918c-0.407,1.433 -0.977,2.681 -1.713,3.743c-0.734,1.063 -1.617,1.965 -2.646,2.706c-1.03,0.741 -2.174,1.335 -3.435,1.782c-1.26,0.447 -2.619,0.773 -4.075,0.976c-1.457,0.203 -2.976,0.304 -4.559,0.304l-18.319,0l0,-28.815l18.277,0c1.583,0 3.102,0.101 4.558,0.304c1.457,0.203 2.819,0.528 4.086,0.975c1.268,0.447 2.42,1.038 3.457,1.772c1.036,0.734 1.922,1.635 2.656,2.706c0.736,1.069 1.306,2.317 1.713,3.743c0.406,1.426 0.609,3.055 0.609,4.886ZM433.615,131.571c0,-1.384 -0.178,-2.587 -0.536,-3.607c-0.356,-1.021 -0.93,-1.863 -1.722,-2.527c-0.791,-0.664 -1.825,-1.161 -3.099,-1.489c-1.274,-0.329 -2.829,-0.493 -4.663,-0.493l-9.685,0l0,16.274l9.685,0c1.834,0 3.389,-0.164 4.663,-0.492c1.274,-0.329 2.308,-0.833 3.099,-1.511c0.792,-0.677 1.366,-1.527 1.722,-2.548c0.358,-1.02 0.536,-2.223 0.536,-3.607Z" style="fill:#fff;fill-rule:nonzero;"/><rect x="448.573" y="117.185" width="7.793" height="28.815" style="fill:#fff;"/><path d="M488.593,140.547l-16.092,0l-2.71,5.453l-8.697,0l15.104,-28.815l8.698,0l15.104,28.815l-8.697,0l-2.71,-5.453ZM475.295,134.927l10.546,0l-5.252,-10.612l-5.294,10.612Z" style="fill:#fff;fill-rule:nonzero;"/><rect x="0" y="0" width="21.068" height="103.044" style="fill:#fff;"/><path d="M36.349,0l20.935,0l64.324,33.623l0,-33.623l20.935,0l0,103.044l-20.935,0l0,-47.269l-64.324,-33.425l0,80.694l-20.935,0l0,-103.044Z" style="fill:#fff;fill-rule:nonzero;"/><path d="M150.757,103.044l67.098,-85.242l-62.013,0l0,-17.802l100.977,0l-68.088,85.244l208.615,0l0,17.8l-246.589,0Z" style="fill:#ce2922;fill-rule:nonzero;"/><rect x="268.5" y="0" width="21.068" height="73.829" style="fill:#fff;"/><path d="M338.34,18.328l-38.106,0l0,-18.328l97.112,0l0,18.328l-38.071,0l0,55.501l-20.935,0l0,-55.501Z" style="fill:#fff;fill-rule:nonzero;"/><path d="M408.435,0l87.901,0l0,18.328l-66.966,0l0,20.569l59.305,0l0,17.208l-59.305,0l0,28.678l68.352,0l0,18.261l-89.287,0l0,-103.044Z" style="fill:#fff;fill-rule:nonzero;"/></svg>