<?xml version="1.0" encoding="utf-8"?>
<!-- Generator: Adobe Illustrator 16.0.4, SVG Export Plug-In . SVG Version: 6.00 Build 0)  -->
<!DOCTYPE svg PUBLIC "-//W3C//DTD SVG 1.1//EN" "http://www.w3.org/Graphics/SVG/1.1/DTD/svg11.dtd">
<svg version="1.1" id="Layer_1" xmlns:sketch="http://www.bohemiancoding.com/sketch/ns"
	 xmlns="http://www.w3.org/2000/svg" xmlns:xlink="http://www.w3.org/1999/xlink" x="0px" y="0px" width="451px" height="38px"
	 viewBox="0 0 451 38" enable-background="new 0 0 451 38" xml:space="preserve">
<title>Secondthought</title>
<desc>Created with Sketch.</desc>
<g enable-background="new    ">
	<path fill="#2b394c" d="M13.984,37.384c-1.792,0-3.472-0.288-5.04-0.864c-1.568-0.575-2.952-1.344-4.152-2.304
		s-2.144-2.088-2.832-3.384c-0.688-1.296-1.032-2.664-1.032-4.104h7.296c0,0.288,0.136,0.624,0.408,1.009
		c0.271,0.384,0.656,0.752,1.152,1.104c0.496,0.353,1.096,0.648,1.8,0.888c0.704,0.24,1.504,0.36,2.4,0.36
		c1.44,0,2.576-0.168,3.408-0.504c0.832-0.336,1.456-0.703,1.872-1.104c0.416-0.4,0.735-0.937,0.96-1.608
		c0-0.384-0.024-0.769-0.072-1.152c-0.048-0.384-0.2-0.735-0.456-1.056c-0.448-0.544-1.216-0.968-2.304-1.272
		c-1.088-0.304-2.432-0.456-4.032-0.456c-1.216,0-2.312-0.111-3.288-0.336c-0.976-0.223-1.832-0.504-2.568-0.84
		c-0.736-0.336-1.376-0.712-1.92-1.128C5.04,20.217,4.592,19.8,4.24,19.384c-0.705-0.768-1.248-1.575-1.632-2.424
		c-0.384-0.848-0.656-1.647-0.816-2.4c-0.161-0.751-0.248-1.407-0.264-1.968c-0.016-0.56-0.024-0.968-0.024-1.224
		c0-0.224,0.032-0.584,0.096-1.08C1.664,9.792,1.799,9.24,2.008,8.632c0.208-0.607,0.496-1.255,0.864-1.943
		C3.239,6,3.744,5.337,4.384,4.696C6.72,2.36,9.968,1.192,14.128,1.192c4.096,0,7.296,1.199,9.6,3.6
		c0.799,0.832,1.423,1.696,1.872,2.592c0.448,0.896,0.768,1.729,0.96,2.496c0.192,0.769,0.304,1.425,0.336,1.968
		c0.032,0.545,0.048,0.881,0.048,1.009l-7.296-0.24v0.096c0-0.384-0.064-0.823-0.192-1.32c-0.128-0.495-0.384-0.96-0.768-1.392
		s-0.944-0.792-1.68-1.08c-0.736-0.288-1.696-0.432-2.88-0.432c-1.152,0-2.072,0.112-2.76,0.336C10.68,9.048,10.151,9.32,9.784,9.64
		c-0.369,0.32-0.617,0.656-0.744,1.009c-0.128,0.353-0.192,0.64-0.192,0.863v0.336L8.8,11.896c0,0.319,0.032,0.64,0.096,0.96
		c0.064,0.256,0.144,0.536,0.24,0.84c0.096,0.305,0.271,0.584,0.528,0.84c0.736,0.736,1.968,1.104,3.696,1.104
		c4.543,0,8.048,0.984,10.512,2.952c2.464,1.968,3.696,4.745,3.696,8.328c0,1.024-0.248,2.145-0.744,3.36
		c-0.497,1.216-1.28,2.352-2.352,3.408c-1.073,1.056-2.472,1.936-4.2,2.64C18.544,37.031,16.448,37.384,13.984,37.384z"/>
	<path fill="#2b394c" d="M42.976,9.112v7.151h15.84v7.345h-15.84v6.048h16.464V37H35.68V1.816h23.76v7.296H42.976z"/>
	<path fill="#2b394c" d="M97.263,28.648c-0.768,1.248-1.68,2.384-2.736,3.407c-1.056,1.024-2.225,1.904-3.504,2.641
		c-1.28,0.736-2.657,1.304-4.128,1.704c-1.472,0.4-2.992,0.6-4.56,0.6c-2.433,0-4.712-0.464-6.84-1.392
		c-2.128-0.928-3.984-2.192-5.568-3.792c-1.584-1.601-2.84-3.464-3.768-5.593c-0.929-2.127-1.392-4.407-1.392-6.84
		c0-2.432,0.463-4.711,1.392-6.84c0.928-2.128,2.184-3.991,3.768-5.592c1.584-1.6,3.439-2.863,5.568-3.792
		c2.128-0.928,4.408-1.393,6.84-1.393c1.567,0,3.087,0.2,4.56,0.601c1.472,0.4,2.848,0.968,4.128,1.704
		c1.279,0.736,2.448,1.624,3.504,2.664c1.056,1.04,1.968,2.184,2.736,3.432l-5.376,5.376c-0.384-0.96-0.888-1.84-1.512-2.64
		s-1.352-1.488-2.184-2.064c-0.833-0.576-1.745-1.023-2.736-1.344c-0.992-0.319-2.032-0.48-3.12-0.48
		c-1.409,0-2.745,0.272-4.008,0.816c-1.265,0.545-2.36,1.288-3.288,2.232c-0.928,0.943-1.664,2.039-2.208,3.287
		c-0.544,1.248-0.816,2.593-0.816,4.032c0,1.44,0.271,2.784,0.816,4.032c0.544,1.248,1.28,2.345,2.208,3.288
		c0.928,0.944,2.023,1.688,3.288,2.231c1.264,0.545,2.6,0.816,4.008,0.816c1.087,0,2.127-0.16,3.12-0.479
		c0.992-0.32,1.904-0.769,2.736-1.345c0.832-0.576,1.56-1.255,2.184-2.04c0.624-0.783,1.128-1.655,1.512-2.615L97.263,28.648z"/>
	<path fill="#2b394c" d="M119.103,37c-2.432,0-4.712-0.464-6.84-1.392c-2.128-0.928-3.984-2.192-5.568-3.792
		c-1.584-1.601-2.84-3.464-3.768-5.593c-0.929-2.127-1.392-4.407-1.392-6.84c0-2.432,0.463-4.711,1.392-6.84
		c0.928-2.128,2.184-3.991,3.768-5.592c1.584-1.6,3.439-2.863,5.568-3.792c2.128-0.928,4.408-1.393,6.84-1.393
		c2.432,0,4.712,0.465,6.84,1.393c2.127,0.929,3.984,2.192,5.568,3.792c1.584,1.601,2.839,3.464,3.768,5.592
		c0.928,2.129,1.392,4.408,1.392,6.84c0,2.433-0.464,4.713-1.392,6.84c-0.929,2.129-2.184,3.992-3.768,5.593
		c-1.584,1.6-3.44,2.864-5.568,3.792C123.815,36.536,121.535,37,119.103,37z M119.103,9.016c-1.44,0-2.784,0.272-4.032,0.816
		c-1.248,0.545-2.336,1.288-3.264,2.232c-0.928,0.943-1.664,2.039-2.208,3.287c-0.544,1.248-0.816,2.593-0.816,4.032
		c0,1.44,0.271,2.784,0.816,4.032c0.544,1.248,1.28,2.345,2.208,3.288c0.928,0.944,2.016,1.688,3.264,2.231
		c1.248,0.545,2.592,0.816,4.032,0.816c1.408,0,2.736-0.271,3.984-0.816c1.248-0.543,2.344-1.287,3.288-2.231
		c0.944-0.943,1.688-2.04,2.232-3.288c0.543-1.248,0.816-2.592,0.816-4.032c0-1.439-0.272-2.784-0.816-4.032
		c-0.545-1.248-1.289-2.344-2.232-3.287c-0.944-0.944-2.04-1.688-3.288-2.232C121.839,9.288,120.511,9.016,119.103,9.016z"/>
	<path fill="#2b394c" d="M166.143,1.816h7.488v35.231h-8.256L150.208,14.2v22.848h-7.488V1.768h8.256l15.168,22.849V1.816z"/>
	<path fill="#2b394c" d="M199.983,3.832c1.056,0.479,2.136,1.112,3.24,1.896c1.104,0.785,2.095,1.793,2.976,3.024
		c0.879,1.232,1.608,2.721,2.184,4.464c0.576,1.745,0.864,3.816,0.864,6.216c0,2.945-0.449,5.417-1.344,7.416
		c-0.896,2.001-2.056,3.656-3.48,4.969c-1.424,1.312-3.016,2.32-4.776,3.023c-1.76,0.704-3.512,1.225-5.256,1.561
		c-1.745,0.336-3.393,0.527-4.944,0.575c-1.553,0.049-2.808,0.072-3.768,0.072h-3.6V1.768h3.6c1.023,0,2.119,0.009,3.288,0.024
		c1.168,0.017,2.376,0.089,3.624,0.216c1.248,0.129,2.496,0.336,3.744,0.624S198.799,3.32,199.983,3.832z M189.327,29.704
		c2.271-0.16,4.208-0.472,5.808-0.937c1.6-0.463,2.911-1.111,3.936-1.943c1.024-0.832,1.768-1.855,2.232-3.072
		c0.463-1.216,0.696-2.655,0.696-4.32c0-1.951-0.256-3.567-0.768-4.848c-0.512-1.279-1.296-2.312-2.352-3.096
		c-1.056-0.784-2.376-1.352-3.96-1.704c-1.584-0.352-3.448-0.576-5.592-0.672V29.704z"/>
	<path fill="#2b394c" d="M238.19,9.112h-8.159v27.936h-7.345V9.112h-8.16V1.816h23.664V9.112z"/>
	<path fill="#2b394c" d="M271.982,1.864v35.231h-7.393V24.184h-12.24v12.912h-7.344V1.864h7.344V16.84h12.24V1.864H271.982z"/>
	<path fill="#2b394c" d="M295.742,37c-2.433,0-4.713-0.464-6.84-1.392c-2.129-0.928-3.984-2.192-5.568-3.792
		c-1.584-1.601-2.84-3.464-3.768-5.593c-0.93-2.127-1.393-4.407-1.393-6.84c0-2.432,0.463-4.711,1.393-6.84
		c0.928-2.128,2.184-3.991,3.768-5.592c1.584-1.6,3.439-2.863,5.568-3.792c2.127-0.928,4.407-1.393,6.84-1.393
		c2.432,0,4.711,0.465,6.84,1.393c2.127,0.929,3.984,2.192,5.568,3.792c1.584,1.601,2.839,3.464,3.768,5.592
		c0.928,2.129,1.393,4.408,1.393,6.84c0,2.433-0.465,4.713-1.393,6.84c-0.929,2.129-2.184,3.992-3.768,5.593
		c-1.584,1.6-3.441,2.864-5.568,3.792C300.453,36.536,298.174,37,295.742,37z M295.742,9.016c-1.44,0-2.784,0.272-4.032,0.816
		c-1.248,0.545-2.337,1.288-3.265,2.232c-0.928,0.943-1.664,2.039-2.207,3.287c-0.545,1.248-0.816,2.593-0.816,4.032
		c0,1.44,0.271,2.784,0.816,4.032c0.543,1.248,1.279,2.345,2.207,3.288c0.928,0.944,2.017,1.688,3.265,2.231
		c1.248,0.545,2.592,0.816,4.032,0.816c1.407,0,2.736-0.271,3.984-0.816c1.248-0.543,2.344-1.287,3.287-2.231
		c0.943-0.943,1.688-2.04,2.232-3.288c0.543-1.248,0.816-2.592,0.816-4.032c0-1.439-0.273-2.784-0.816-4.032
		c-0.545-1.248-1.289-2.344-2.232-3.287c-0.943-0.944-2.039-1.688-3.287-2.232C298.479,9.288,297.149,9.016,295.742,9.016z"/>
	<path fill="#2b394c" d="M347.869,1.816v19.199c0,0.929-0.096,1.961-0.287,3.097c-0.192,1.136-0.504,2.296-0.937,3.479
		c-0.433,1.185-1.008,2.345-1.728,3.48c-0.721,1.136-1.608,2.144-2.664,3.023c-1.057,0.881-2.297,1.584-3.721,2.112
		S335.469,37,333.613,37h-0.048c-1.92,0-3.696-0.319-5.328-0.96c-1.632-0.64-3.056-1.584-4.272-2.832
		c-1.151-1.152-2.039-2.392-2.664-3.72c-0.623-1.328-1.079-2.592-1.367-3.792s-0.465-2.24-0.528-3.12
		c-0.064-0.88-0.096-1.416-0.096-1.608V1.816h7.344v19.199c0,0.257,0.017,0.641,0.048,1.152c0.031,0.513,0.128,1.088,0.288,1.729
		c0.16,0.64,0.384,1.296,0.673,1.968c0.287,0.672,0.695,1.296,1.223,1.872c0.529,0.575,1.177,1.04,1.945,1.392
		c0.768,0.353,1.695,0.528,2.783,0.528c1.633,0,2.904-0.384,3.816-1.152c0.912-0.768,1.6-1.647,2.064-2.64
		c0.463-0.992,0.751-1.968,0.863-2.929c0.111-0.96,0.168-1.615,0.168-1.968V1.816H347.869z"/>
	<path fill="#2b394c" d="M371.389,17.656h15.312v10.319c-0.768,1.345-1.688,2.568-2.76,3.673c-1.072,1.104-2.265,2.056-3.576,2.855
		c-1.312,0.801-2.729,1.416-4.248,1.848c-1.52,0.433-3.096,0.648-4.729,0.648c-2.399,0-4.664-0.464-6.791-1.392
		c-2.129-0.928-3.984-2.185-5.568-3.769s-2.84-3.439-3.768-5.567c-0.93-2.128-1.393-4.408-1.393-6.841
		c0-2.431,0.463-4.711,1.393-6.84c0.928-2.128,2.184-3.983,3.768-5.567s3.439-2.84,5.568-3.769c2.127-0.928,4.392-1.392,6.791-1.392
		c3.104,0,5.929,0.728,8.473,2.184c2.544,1.457,4.615,3.384,6.216,5.784l-5.28,5.376c-0.832-1.824-2.08-3.296-3.744-4.416
		s-3.552-1.68-5.664-1.68c-1.408,0-2.735,0.271-3.983,0.815c-1.248,0.545-2.337,1.28-3.265,2.208
		c-0.928,0.929-1.664,2.017-2.207,3.265c-0.545,1.248-0.816,2.592-0.816,4.031c0,1.44,0.271,2.784,0.816,4.032
		c0.543,1.248,1.279,2.345,2.207,3.288c0.928,0.944,2.017,1.688,3.265,2.232s2.575,0.815,3.983,0.815
		c0.769,0,1.561-0.111,2.377-0.336c0.815-0.224,1.623-0.552,2.424-0.983c0.799-0.433,1.535-0.952,2.208-1.561
		c0.672-0.607,1.247-1.296,1.728-2.063h-8.736V17.656z"/>
	<path fill="#2b394c" d="M419.629,1.864v35.231h-7.392V24.184h-12.24v12.912h-7.344V1.864h7.344V16.84h12.24V1.864H419.629z"/>
	<path fill="#2b394c" d="M450.157,9.112h-8.159v27.936h-7.345V9.112h-8.16V1.816h23.664V9.112z"/>
</g>
</svg>
